# xmcd
#
# Track frame offsets: 
#        150
#        18916
#        35170
#        50051
#        69227
#        86280
#        102286
#        118794
#        138179
#        159479
#        177658
#        194416
#        215961
#
# Disc length: 3144 seconds
#
# Revision: 6
# Processed by: cddbd v1.5.2PL0 Copyright (c) Steve Scherf et al.
# Submitted via: ExactAudioCopy v1.0b3
#
DISCID=bc0c460d
DTITLE=Jennifer Hudson - Jennifer Hudson
DYEAR=2008
DGENRE=Soul
TTITLE0=Spotlight
TTITLE1=If This Isn't Love
TTITLE2=Pocketbook Feat. Ludacris
TTITLE3=Giving Myself
TTITLE4=What's Wrong (Go Away) Feat. T-Pain
TTITLE5=My Heart
TTITLE6=You Pulled Me Through
TTITLE7=I'm His Only Woman Feat. Fantasia
TTITLE8=Can't Stop The Rain
TTITLE9=We Gon' Fight
TTITLE10=Invisible
TTITLE11=And I Am Telling You I'm Not Going
TTITLE12=Jesus Promised Me A Home Over There
EXTD=
EXTT0=
EXTT1=
EXTT2=
EXTT3=
EXTT4=
EXTT5=
EXTT6=
EXTT7=
EXTT8=
EXTT9=
EXTT10=
EXTT11=
EXTT12=
PLAYORDER=
